# xmcd
#
# Track frame offsets: 
#        150
#        5462
#        36885
#        65035
#        91675
#        117007
#        161250
#        187922
#        209897
#        245185
#        276502
#        280787
#        297970
#
# Disc length: 4344 seconds
#
# Revision: 3
# Processed by: cddbd v1.5PL3 Copyright (c) Steve Scherf et al.
# Submitted via: ExactAudioCopy v0.95a2
#
DISCID=c010f60d
DTITLE=Courtney Pine - Underground
DYEAR=1997
DGENRE=Jazz+Funk
TTITLE0=Intro - Inhale
TTITLE1=Modern Day Jazz
TTITLE2=Tryin' Times
TTITLE3=Oneness Of Mind
TTITLE4=Invisible (Higher Vibe)
TTITLE5=The Book Of... (The Dead)
TTITLE6=Children Of The Sun
TTITLE7=The In-sense Song
TTITLE8=Silver Surfer
TTITLE9=Underground
TTITLE10=Outro - Xhale
TTITLE11=Save The Children
TTITLE12=Children Of The Sun (Jungle Mix)
EXTD=
EXTT0=
EXTT1=
EXTT2=
EXTT3=
EXTT4=
EXTT5=
EXTT6=
EXTT7=
EXTT8=
EXTT9=
EXTT10=
EXTT11=
EXTT12=
PLAYORDER=
